<svg width="251" height="75" viewBox="0 0 251 75" fill="none" xmlns="http://www.w3.org/2000/svg">
<path d="M248.913 65.4973C248.913 69.4269 245.73 72.61 241.793 72.61H8.78279C4.84756 72.61 1.65332 69.4269 1.65332 65.4973V8.77536C1.65332 4.84756 4.84756 1.65332 8.78279 1.65332H241.791C245.73 1.65332 248.912 4.84756 248.912 8.77536L248.913 65.4973Z" fill="black"/>
<path d="M55.9515 36.7416C55.8976 30.7561 60.8524 27.8442 61.079 27.7086C58.2729 23.6174 53.9235 23.0584 52.3951 23.0138C48.7422 22.6294 45.1988 25.1996 43.338 25.1996C41.44 25.1996 38.5745 23.0509 35.4861 23.1141C31.5118 23.1754 27.7939 25.4763 25.7548 29.0494C21.5466 36.3349 24.6851 47.0412 28.7169 52.9301C30.7337 55.8142 33.0904 59.0344 36.1751 58.9211C39.1929 58.7967 40.3201 56.9972 43.9619 56.9972C47.5703 56.9972 48.6289 58.9211 51.7748 58.8487C55.0136 58.7967 57.0528 55.9516 58.999 53.0415C61.3297 49.7358 62.2657 46.4803 62.3028 46.3132C62.2267 46.2872 56.0128 43.9156 55.9515 36.7416Z" fill="white"/>
<path d="M50.0088 19.1401C51.6319 17.1103 52.7424 14.3488 52.4342 11.5464C50.0849 11.6504 47.1469 13.1714 45.4551 15.1566C43.9583 16.906 42.6212 19.7734 42.9666 22.4699C45.6055 22.6668 48.3151 21.1384 50.0088 19.1401Z" fill="white"/>
<path d="M99.8647 52.0763H95.6472L93.3369 44.8169H85.3068L83.1061 52.0763H79L86.9559 27.3618H91.8698L99.8647 52.0763ZM92.6405 41.7712L90.5513 35.3177C90.3303 34.6584 89.9161 33.1059 89.3051 30.6619H89.2308C88.9876 31.713 88.5957 33.2656 88.0572 35.3177L86.005 41.7712H92.6405Z" fill="white"/>
<path d="M120.325 42.9473C120.325 45.9781 119.506 48.3738 117.868 50.1325C116.401 51.698 114.579 52.4799 112.405 52.4799C110.057 52.4799 108.371 51.6367 107.344 49.9505H107.27V59.3382H103.31V40.1226C103.31 38.2172 103.26 36.2617 103.164 34.256H106.646L106.867 37.0807H106.941C108.261 34.9524 110.265 33.8901 112.954 33.8901C115.057 33.8901 116.812 34.7203 118.215 36.3824C119.623 38.0464 120.325 40.234 120.325 42.9473ZM116.292 43.0921C116.292 41.3576 115.902 39.9276 115.118 38.8022C114.262 37.6285 113.112 37.0417 111.671 37.0417C110.694 37.0417 109.806 37.3685 109.013 38.0129C108.219 38.6629 107.699 39.5116 107.455 40.5628C107.333 41.053 107.272 41.4542 107.272 41.7699V44.7413C107.272 46.0375 107.669 47.1314 108.464 48.0246C109.259 48.9179 110.291 49.3636 111.561 49.3636C113.053 49.3636 114.213 48.7879 115.044 47.6402C115.876 46.4907 116.292 44.9753 116.292 43.0921Z" fill="white"/>
<path d="M140.821 42.9473C140.821 45.9781 140.002 48.3738 138.363 50.1325C136.897 51.698 135.075 52.4799 132.901 52.4799C130.553 52.4799 128.867 51.6367 127.842 49.9505H127.768V59.3382H123.808V40.1226C123.808 38.2172 123.758 36.2617 123.662 34.256H127.144L127.365 37.0807H127.439C128.758 34.9524 130.761 33.8901 133.452 33.8901C135.553 33.8901 137.308 34.7203 138.715 36.3824C140.118 38.0464 140.821 40.234 140.821 42.9473ZM136.788 43.0921C136.788 41.3576 136.396 39.9276 135.612 38.8022C134.756 37.6285 133.61 37.0417 132.167 37.0417C131.189 37.0417 130.303 37.3685 129.508 38.0129C128.713 38.6629 128.195 39.5116 127.952 40.5628C127.831 41.053 127.768 41.4542 127.768 41.7699V44.7413C127.768 46.0375 128.165 47.1314 128.956 48.0246C129.751 48.9161 130.784 49.3636 132.058 49.3636C133.549 49.3636 134.71 48.7879 135.54 47.6402C136.372 46.4907 136.788 44.9753 136.788 43.0921Z" fill="white"/>
<path d="M163.739 45.1459C163.739 47.2481 163.009 48.9585 161.543 50.2789C159.933 51.7219 157.692 52.4425 154.811 52.4425C152.152 52.4425 150.02 51.9299 148.406 50.9029L149.324 47.6028C151.062 48.654 152.969 49.1814 155.047 49.1814C156.539 49.1814 157.699 48.8434 158.533 48.1711C159.363 47.4988 159.777 46.5963 159.777 45.4709C159.777 44.468 159.436 43.623 158.75 42.9378C158.069 42.2525 156.93 41.6155 155.341 41.0268C151.014 39.413 148.852 37.0489 148.852 33.94C148.852 31.9084 149.61 30.2425 151.127 28.9463C152.639 27.6481 154.655 27 157.177 27C159.426 27 161.295 27.3919 162.786 28.1737L161.796 31.4014C160.403 30.6437 158.828 30.2648 157.066 30.2648C155.673 30.2648 154.585 30.6084 153.805 31.2918C153.146 31.9028 152.815 32.6475 152.815 33.5296C152.815 34.5065 153.192 35.3143 153.95 35.9494C154.609 36.5363 155.807 37.1714 157.545 37.8567C159.672 38.7128 161.233 39.7138 162.238 40.8615C163.239 42.0055 163.739 43.4373 163.739 45.1459Z" fill="white"/>
<path d="M176.829 37.2277H172.465V45.88C172.465 48.0807 173.234 49.1801 174.775 49.1801C175.483 49.1801 176.069 49.1188 176.534 48.9962L176.643 52.0029C175.863 52.2944 174.836 52.4412 173.564 52.4412C172.001 52.4412 170.779 51.9639 169.896 51.0112C169.018 50.0566 168.576 48.4558 168.576 46.2068V37.224H165.976V34.2526H168.576V30.9896L172.465 29.8159V34.2526H176.829V37.2277Z" fill="white"/>
<path d="M196.52 43.0198C196.52 45.7591 195.736 48.008 194.173 49.7667C192.533 51.5774 190.356 52.48 187.643 52.48C185.028 52.48 182.946 51.6127 181.394 49.8781C179.841 48.1436 179.065 45.9541 179.065 43.3151C179.065 40.5536 179.863 38.2916 181.466 36.5329C183.065 34.7724 185.223 33.8921 187.936 33.8921C190.551 33.8921 192.655 34.7594 194.243 36.4958C195.762 38.1802 196.52 40.3549 196.52 43.0198ZM192.412 43.148C192.412 41.5044 192.061 40.0949 191.35 38.9193C190.52 37.4968 189.333 36.7873 187.795 36.7873C186.204 36.7873 184.995 37.4986 184.165 38.9193C183.453 40.0967 183.102 41.5286 183.102 43.2222C183.102 44.8658 183.453 46.2753 184.165 47.449C185.021 48.8716 186.217 49.581 187.76 49.581C189.272 49.581 190.458 48.8567 191.314 47.4119C192.044 46.2141 192.412 44.7896 192.412 43.148Z" fill="white"/>
<path d="M209.39 37.7381C208.999 37.6657 208.581 37.6285 208.142 37.6285C206.75 37.6285 205.672 38.1541 204.915 39.2071C204.255 40.1356 203.925 41.3093 203.925 42.7263V52.0769H199.967L200.005 39.8682C200.005 37.8142 199.954 35.9441 199.856 34.2578H203.305L203.449 37.6675H203.559C203.977 36.4957 204.636 35.5523 205.539 34.8447C206.421 34.2077 207.374 33.8901 208.401 33.8901C208.766 33.8901 209.097 33.9161 209.39 33.9626V37.7381Z" fill="white"/>
<path d="M227.097 42.323C227.097 43.0325 227.051 43.6304 226.952 44.1189H215.074C215.121 45.8794 215.695 47.2258 216.798 48.1544C217.799 48.9845 219.093 49.4005 220.683 49.4005C222.441 49.4005 224.046 49.1201 225.489 48.5574L226.109 51.3059C224.423 52.0413 222.432 52.4072 220.135 52.4072C217.372 52.4072 215.202 51.5938 213.624 49.9688C212.049 48.3438 211.26 46.1617 211.26 43.4243C211.26 40.7371 211.993 38.4992 213.462 36.7145C215 34.8091 217.078 33.8564 219.693 33.8564C222.261 33.8564 224.206 34.8091 225.526 36.7145C226.572 38.2281 227.097 40.1001 227.097 42.323ZM223.322 41.296C223.348 40.1224 223.09 39.1084 222.553 38.2522C221.868 37.151 220.815 36.6013 219.398 36.6013C218.103 36.6013 217.05 37.138 216.246 38.2151C215.587 39.0712 215.195 40.0982 215.074 41.2942H223.322V41.296Z" fill="white"/>
<path d="M91.092 18.5884C91.092 20.7742 90.4364 22.4196 89.1271 23.5246C87.9144 24.5442 86.191 25.0549 83.9588 25.0549C82.8519 25.0549 81.9048 25.0066 81.1118 24.91V12.9669C82.1462 12.7998 83.2605 12.7144 84.4639 12.7144C86.5903 12.7144 88.193 13.1768 89.2738 14.1016C90.4847 15.1472 91.092 16.6422 91.092 18.5884ZM89.0398 18.6423C89.0398 17.2253 88.6647 16.1389 87.9144 15.3812C87.1642 14.6253 86.0685 14.2465 84.6255 14.2465C84.0126 14.2465 83.4908 14.2873 83.0581 14.3728V23.4522C83.2976 23.4893 83.7359 23.5061 84.3729 23.5061C85.8623 23.5061 87.0119 23.0919 87.8216 22.2636C88.6313 21.4354 89.0398 20.2282 89.0398 18.6423Z" fill="white"/>
<path d="M101.973 20.4972C101.973 21.8436 101.589 22.9468 100.82 23.8122C100.014 24.7017 98.9461 25.1456 97.6127 25.1456C96.3276 25.1456 95.3043 24.7203 94.5411 23.866C93.7796 23.0136 93.3989 21.9384 93.3989 20.6421C93.3989 19.2864 93.7908 18.174 94.5782 17.3104C95.3656 16.4469 96.4242 16.0142 97.7576 16.0142C99.0427 16.0142 100.075 16.4394 100.857 17.2919C101.6 18.1201 101.973 19.1898 101.973 20.4972ZM99.9545 20.5604C99.9545 19.7525 99.78 19.0598 99.4327 18.4823C99.0241 17.784 98.4429 17.4349 97.687 17.4349C96.9052 17.4349 96.3109 17.784 95.9023 18.4823C95.5532 19.0598 95.3805 19.7637 95.3805 20.5957C95.3805 21.4035 95.555 22.0962 95.9023 22.6738C96.3239 23.3721 96.9107 23.7212 97.6684 23.7212C98.4113 23.7212 98.9944 23.3665 99.4141 22.6552C99.7744 22.0665 99.9545 21.3682 99.9545 20.5604Z" fill="white"/>
<path d="M116.562 16.1929L113.823 24.9473H112.04L110.905 21.1458C110.617 20.1968 110.383 19.2534 110.201 18.3174H110.166C109.997 19.2794 109.763 20.221 109.462 21.1458L108.257 24.9473H106.454L103.878 16.1929H105.878L106.868 20.3547C107.107 21.3389 107.304 22.2768 107.462 23.1645H107.497C107.642 22.4328 107.882 21.5005 108.22 20.3732L109.462 16.1947H111.048L112.239 20.2841C112.527 21.2814 112.761 22.2415 112.941 23.1663H112.995C113.126 22.2656 113.325 21.3055 113.589 20.2841L114.651 16.1947H116.562V16.1929Z" fill="white"/>
<path d="M126.653 24.9471H124.706V19.9329C124.706 18.3878 124.119 17.6152 122.942 17.6152C122.365 17.6152 121.898 17.8269 121.536 18.2522C121.178 18.6775 120.996 19.1789 120.996 19.7527V24.9452H119.05V18.6942C119.05 17.9253 119.025 17.0915 118.979 16.1889H120.689L120.78 17.5576H120.834C121.061 17.1323 121.399 16.7813 121.843 16.5009C122.37 16.1741 122.961 16.0088 123.607 16.0088C124.424 16.0088 125.104 16.2725 125.644 16.8018C126.316 17.4499 126.653 18.4175 126.653 19.7026V24.9471Z" fill="white"/>
<path d="M132.02 24.9467H130.075V12.1753H132.02V24.9467Z" fill="white"/>
<path d="M143.478 20.4972C143.478 21.8436 143.093 22.9468 142.324 23.8122C141.518 24.7017 140.449 25.1456 139.117 25.1456C137.83 25.1456 136.807 24.7203 136.045 23.866C135.284 23.0136 134.903 21.9384 134.903 20.6421C134.903 19.2864 135.295 18.174 136.083 17.3104C136.87 16.4469 137.929 16.0142 139.26 16.0142C140.547 16.0142 141.578 16.4394 142.361 17.2919C143.104 18.1201 143.478 19.1898 143.478 20.4972ZM141.457 20.5604C141.457 19.7525 141.283 19.0598 140.935 18.4823C140.529 17.784 139.945 17.4349 139.191 17.4349C138.408 17.4349 137.813 17.784 137.407 18.4823C137.058 19.0598 136.885 19.7637 136.885 20.5957C136.885 21.4035 137.059 22.0962 137.407 22.6738C137.828 23.3721 138.415 23.7212 139.173 23.7212C139.916 23.7212 140.497 23.3665 140.917 22.6552C141.279 22.0665 141.457 21.3682 141.457 20.5604Z" fill="white"/>
<path d="M152.897 24.9469H151.15L151.005 23.9385H150.951C150.353 24.7426 149.501 25.1456 148.394 25.1456C147.568 25.1456 146.899 24.88 146.396 24.3526C145.939 23.8735 145.71 23.2773 145.71 22.5698C145.71 21.5001 146.156 20.6848 147.053 20.1202C147.948 19.5557 149.207 19.279 150.829 19.292V19.1285C150.829 17.9753 150.223 17.3996 149.011 17.3996C148.147 17.3996 147.386 17.6169 146.728 18.0477L146.333 16.77C147.146 16.2667 148.151 16.0142 149.336 16.0142C151.624 16.0142 152.771 17.2213 152.771 19.6355V22.8595C152.771 23.7342 152.814 24.4306 152.897 24.9469ZM150.877 21.9384V20.5882C148.73 20.5511 147.657 21.1398 147.657 22.3525C147.657 22.8093 147.779 23.1511 148.03 23.3795C148.281 23.6079 148.6 23.7212 148.981 23.7212C149.408 23.7212 149.807 23.5856 150.171 23.3163C150.537 23.0452 150.762 22.7016 150.845 22.2801C150.866 22.1854 150.877 22.0702 150.877 21.9384Z" fill="white"/>
<path d="M163.956 24.9467H162.229L162.138 23.5408H162.084C161.533 24.6105 160.593 25.1454 159.272 25.1454C158.218 25.1454 157.339 24.7313 156.643 23.903C155.946 23.0747 155.599 21.9994 155.599 20.679C155.599 19.262 155.976 18.1143 156.734 17.2378C157.467 16.4207 158.366 16.0121 159.436 16.0121C160.611 16.0121 161.434 16.4077 161.902 17.2006H161.939V12.1753H163.887V22.5881C163.887 23.4406 163.91 24.2261 163.956 24.9467ZM161.939 21.2547V19.795C161.939 19.5425 161.921 19.3382 161.885 19.1822C161.776 18.7142 161.54 18.3205 161.182 18.0029C160.819 17.6854 160.383 17.5256 159.88 17.5256C159.154 17.5256 158.585 17.8135 158.168 18.3911C157.753 18.9686 157.544 19.7059 157.544 20.6066C157.544 21.472 157.742 22.174 158.142 22.7144C158.563 23.2901 159.131 23.578 159.843 23.578C160.481 23.578 160.992 23.3384 161.38 22.8574C161.755 22.4136 161.939 21.8787 161.939 21.2547Z" fill="white"/>
<path d="M180.602 20.4972C180.602 21.8436 180.217 22.9468 179.448 23.8122C178.642 24.7017 177.576 25.1456 176.241 25.1456C174.958 25.1456 173.935 24.7203 173.169 23.866C172.408 23.0136 172.027 21.9384 172.027 20.6421C172.027 19.2864 172.419 18.174 173.207 17.3104C173.994 16.4469 175.053 16.0142 176.388 16.0142C177.671 16.0142 178.706 16.4394 179.486 17.2919C180.228 18.1201 180.602 19.1898 180.602 20.4972ZM178.585 20.5604C178.585 19.7525 178.41 19.0598 178.063 18.4823C177.653 17.784 177.073 17.4349 176.315 17.4349C175.535 17.4349 174.941 17.784 174.531 18.4823C174.182 19.0598 174.009 19.7637 174.009 20.5957C174.009 21.4035 174.183 22.0962 174.531 22.6738C174.952 23.3721 175.539 23.7212 176.297 23.7212C177.04 23.7212 177.625 23.3665 178.044 22.6552C178.403 22.0665 178.585 21.3682 178.585 20.5604Z" fill="white"/>
<path d="M191.067 24.9471H189.122V19.9329C189.122 18.3878 188.536 17.6152 187.356 17.6152C186.779 17.6152 186.313 17.8269 185.952 18.2522C185.592 18.6775 185.412 19.1789 185.412 19.7527V24.9452H183.464V18.6942C183.464 17.9253 183.441 17.0915 183.395 16.1889H185.104L185.195 17.5576H185.248C185.477 17.1323 185.815 16.7813 186.257 16.5009C186.786 16.1741 187.375 16.0088 188.023 16.0088C188.838 16.0088 189.518 16.2725 190.058 16.8018C190.732 17.4499 191.067 18.4175 191.067 19.7026V24.9471Z" fill="white"/>
<path d="M204.165 17.6498H202.022V21.9026C202.022 22.9834 202.402 23.5239 203.156 23.5239C203.506 23.5239 203.795 23.4942 204.024 23.4329L204.074 24.9093C203.689 25.0541 203.184 25.1266 202.562 25.1266C201.793 25.1266 201.195 24.8926 200.763 24.4246C200.328 23.9566 200.113 23.1692 200.113 22.0642V17.6498H198.833V16.192H200.113V14.5874L202.02 14.0117V16.1901H204.163V17.6498H204.165Z" fill="white"/>
<path d="M214.468 24.9467H212.52V19.9696C212.52 18.4003 211.933 17.6148 210.757 17.6148C209.855 17.6148 209.238 18.0698 208.9 18.9798C208.843 19.171 208.809 19.405 208.809 19.6799V24.9448H206.865V12.1753H208.809V17.4514H208.846C209.459 16.4912 210.338 16.0121 211.476 16.0121C212.282 16.0121 212.949 16.2758 213.478 16.8051C214.137 17.4644 214.468 18.4449 214.468 19.7412V24.9467Z" fill="white"/>
<path d="M225.096 20.1556C225.096 20.5048 225.07 20.7982 225.023 21.0378H219.186C219.212 21.9032 219.491 22.5625 220.031 23.0193C220.525 23.4279 221.162 23.6322 221.942 23.6322C222.806 23.6322 223.593 23.4947 224.303 23.218L224.607 24.57C223.777 24.9303 222.8 25.1104 221.669 25.1104C220.314 25.1104 219.246 24.7111 218.473 23.9126C217.697 23.114 217.312 22.0425 217.312 20.6979C217.312 19.3775 217.671 18.2781 218.393 17.4015C219.147 16.4656 220.167 15.9976 221.454 15.9976C222.713 15.9976 223.669 16.4656 224.316 17.4015C224.838 18.1444 225.096 19.0637 225.096 20.1556ZM223.239 19.6524C223.253 19.0748 223.125 18.5771 222.862 18.1574C222.524 17.617 222.009 17.3458 221.313 17.3458C220.678 17.3458 220.159 17.6095 219.764 18.1388C219.441 18.5604 219.249 19.0637 219.186 19.6524H223.239Z" fill="white"/>
</svg>
