<svg width="251" height="75" viewBox="0 0 251 75" fill="none" xmlns="http://www.w3.org/2000/svg">
<g clip-path="url(#clip0_34_1930)">
<path fill-rule="evenodd" clip-rule="evenodd" d="M241.422 74.8368H9.289C4.16944 74.8368 0 70.6674 0 65.5893V10.1044C0 5.00793 4.16944 0.856934 9.289 0.856934H241.422C246.537 0.856934 250.711 5.00793 250.711 10.1044V65.5893C250.711 70.6674 246.537 74.8368 241.422 74.8368Z" fill="black"/>
<path d="M132.075 25.3281C130.401 25.3281 128.99 24.7424 127.874 23.5893C126.767 22.4685 126.149 20.9235 126.176 19.3461C126.176 17.6626 126.748 16.2374 127.874 15.1075C128.985 13.9544 130.396 13.3687 132.071 13.3687C133.726 13.3687 135.138 13.9544 136.272 15.1075C137.398 16.2743 137.97 17.6995 137.97 19.3461C137.951 21.0342 137.379 22.4593 136.272 23.5847C135.161 24.747 133.75 25.3281 132.075 25.3281ZM82.2588 25.3281C80.6214 25.3281 79.2009 24.7516 78.0386 23.6124C76.8856 22.4778 76.2998 21.0434 76.2998 19.3507C76.2998 17.658 76.8856 16.2236 78.0386 15.089C79.1778 13.9498 80.5984 13.3733 82.2588 13.3733C83.0705 13.3733 83.8592 13.5347 84.6156 13.8622C85.3582 14.1804 85.9624 14.6139 86.4098 15.1444L86.5205 15.2781L85.2706 16.505L85.1414 16.3528C84.4357 15.5133 83.4902 15.1028 82.2403 15.1028C81.1242 15.1028 80.151 15.4995 79.3485 16.2836C78.5413 17.0723 78.1309 18.1054 78.1309 19.3553C78.1309 20.6052 78.5413 21.6384 79.3485 22.427C80.151 23.2111 81.1242 23.6078 82.2403 23.6078C83.4303 23.6078 84.4311 23.2111 85.2106 22.427C85.6718 21.9658 85.9578 21.3201 86.0592 20.5037H82.0512V18.7788H87.7796L87.8027 18.9356C87.8442 19.2262 87.8857 19.526 87.8857 19.8027C87.8857 21.3939 87.406 22.6807 86.4559 23.6308C85.3766 24.7562 83.9653 25.3281 82.2588 25.3281ZM148.495 25.0837H146.728L141.318 16.4266L141.364 17.9855V25.0791H139.598V13.6177H141.613L141.669 13.7053L146.756 21.8597L146.71 20.3054V13.6177H148.495V25.0837ZM118.801 25.0837H117.012V15.3427H113.908V13.6177H121.901V15.3427H118.797V25.0837H118.801ZM112.45 25.0837H110.665V13.6177H112.45V25.0837ZM102.419 25.0837H100.634V15.3427H97.5298V13.6177H105.523V15.3427H102.419V25.0837ZM96.3998 25.0652H89.5553V13.6177H96.3998V15.3427H91.3448V18.4882H95.9063V20.1947H91.3448V23.3403H96.3998V25.0652ZM129.183 22.404C129.981 23.2019 130.95 23.6032 132.075 23.6032C133.233 23.6032 134.178 23.2111 134.967 22.404C135.751 21.6199 136.148 20.5914 136.148 19.3507C136.148 18.11 135.751 17.0769 134.972 16.2974C134.174 15.4995 133.201 15.0982 132.08 15.0982C130.922 15.0982 129.977 15.4903 129.193 16.2974C128.409 17.0815 128.012 18.11 128.012 19.3507C128.012 20.5914 128.404 21.6245 129.183 22.404Z" fill="white"/>
<path fill-rule="evenodd" clip-rule="evenodd" d="M126.011 41.0934C121.652 41.0934 118.119 44.4004 118.119 48.9619C118.119 53.4818 121.675 56.8303 126.011 56.8303C130.369 56.8303 133.902 53.5003 133.902 48.9619C133.902 44.4004 130.369 41.0934 126.011 41.0934ZM126.011 53.7125C123.626 53.7125 121.574 51.7384 121.574 48.9434C121.574 46.1069 123.631 44.1744 126.011 44.1744C128.395 44.1744 130.448 46.1069 130.448 48.9434C130.452 51.7569 128.395 53.7125 126.011 53.7125ZM108.793 41.0934C104.435 41.0934 100.902 44.4004 100.902 48.9619C100.902 53.4818 104.458 56.8303 108.793 56.8303C113.152 56.8303 116.685 53.5003 116.685 48.9619C116.685 44.4004 113.147 41.0934 108.793 41.0934ZM108.793 53.7125C106.409 53.7125 104.356 51.7384 104.356 48.9434C104.356 46.1069 106.413 44.1744 108.793 44.1744C111.178 44.1744 113.23 46.1069 113.23 48.9434C113.23 51.7569 111.178 53.7125 108.793 53.7125ZM88.3058 43.4964V46.8264H96.2988C96.0543 48.6944 95.4363 50.0734 94.4908 51.0189C93.3193 52.1904 91.5113 53.4634 88.3243 53.4634C83.4123 53.4634 79.5703 49.4969 79.5703 44.5849C79.5703 39.6729 83.4123 35.7064 88.3243 35.7064C90.9763 35.7064 92.9088 36.7533 94.3432 38.0909L96.7047 35.7294C94.7122 33.82 92.0602 32.3579 88.3427 32.3579C81.6043 32.3579 75.9497 37.8464 75.9497 44.5664C75.9497 51.3049 81.5997 56.775 88.3427 56.775C91.9818 56.775 94.7122 55.585 96.8707 53.3435C99.0707 51.1434 99.7672 48.0394 99.7672 45.535C99.7672 44.7555 99.7072 44.0545 99.5827 43.4595H88.3012C88.3058 43.4549 88.3058 43.4964 88.3058 43.4964ZM172.105 46.0885C171.446 44.322 169.453 41.075 165.367 41.075C161.317 41.075 157.95 44.262 157.95 48.9434C157.95 53.3619 161.28 56.8119 165.759 56.8119C169.356 56.8119 171.45 54.6118 172.313 53.3204L169.642 51.5309C168.757 52.8454 167.525 53.7078 165.777 53.7078C164.011 53.7078 162.775 52.9053 161.954 51.3233L172.474 46.9648C172.474 46.9694 172.105 46.0885 172.105 46.0885ZM161.377 48.7174C161.294 45.678 163.739 44.1329 165.487 44.1329C166.866 44.1329 168.014 44.8109 168.406 45.7979L161.377 48.7174ZM152.831 56.3414H156.285V33.225H152.831V56.3414ZM147.158 42.8415H147.033C146.254 41.9144 144.773 41.075 142.882 41.075C138.957 41.075 135.341 44.5295 135.341 48.9665C135.341 53.385 138.939 56.798 142.882 56.798C144.75 56.798 146.254 55.954 147.033 55.0085H147.158V56.1385C147.158 59.141 145.553 60.7599 142.965 60.7599C140.848 60.7599 139.534 59.2379 138.999 57.9649L135.996 59.2194C136.859 61.2949 139.16 63.8639 142.961 63.8639C147.01 63.8639 150.442 61.4794 150.442 55.6634V41.5454H147.176V42.8415C147.181 42.8415 147.158 42.8415 147.158 42.8415ZM143.191 53.7125C140.807 53.7125 138.814 51.72 138.814 48.9665C138.814 46.1899 140.807 44.179 143.191 44.179C145.553 44.179 147.384 46.213 147.384 48.9665C147.407 51.72 145.557 53.7125 143.191 53.7125ZM188.28 33.225H180.02V56.3414H183.474V47.5874H188.285C192.108 47.5874 195.867 44.8155 195.867 40.4154C195.867 36.0154 192.122 33.225 188.28 33.225ZM188.382 44.3589H183.47V36.4259H188.382C190.969 36.4259 192.431 38.5613 192.431 40.3924C192.431 42.205 190.951 44.3589 188.382 44.3589ZM209.713 41.0519C207.204 41.0519 204.617 42.1635 203.547 44.5849L206.609 45.8579C207.269 44.5849 208.477 44.1513 209.755 44.1513C211.544 44.1513 213.352 45.2214 213.394 47.1308V47.3753C212.776 47.0247 211.42 46.4897 209.796 46.4897C206.489 46.4897 203.136 48.2977 203.136 51.6877C203.136 54.7917 205.848 56.7842 208.869 56.7842C211.189 56.7842 212.467 55.7372 213.264 54.5242H213.389V56.3137H216.719V47.4583C216.719 43.335 213.657 41.0519 209.713 41.0519ZM209.28 53.7125C208.15 53.7125 206.568 53.159 206.568 51.7384C206.568 49.9489 208.542 49.2709 210.225 49.2709C211.747 49.2709 212.467 49.5984 213.371 50.0504C213.122 52.1259 211.369 53.694 209.28 53.7125ZM228.868 41.5454L224.901 51.5724H224.777L220.667 41.5454H216.95L223.116 55.5619L219.602 63.352H223.199L232.687 41.5454H228.868ZM197.772 56.3414H201.227V33.225H197.772V56.3414Z" fill="white"/>
<path fill-rule="evenodd" clip-rule="evenodd" d="M19.2976 14.7901C18.7626 15.3666 18.4536 16.2475 18.4536 17.4006V58.2971C18.4536 59.4501 18.7626 60.331 19.3161 60.8845L19.4591 61.009L42.3725 38.0956V37.5836L19.4406 14.6655L19.2976 14.7901Z" fill="url(#paint0_linear_34_1930)"/>
<path fill-rule="evenodd" clip-rule="evenodd" d="M49.9964 45.7559L42.354 38.1135V37.5785L49.9964 29.936L50.1625 30.0375L59.2024 35.1755C61.7899 36.633 61.7899 39.0405 59.2024 40.5165L50.1625 45.6545L49.9964 45.7559Z" fill="url(#paint1_linear_34_1930)"/>
<path fill-rule="evenodd" clip-rule="evenodd" d="M50.1628 45.6547L42.3543 37.8462L19.2979 60.9026C20.1419 61.8066 21.5578 61.9081 23.1398 61.0272L50.1628 45.6547Z" fill="url(#paint2_linear_34_1930)"/>
<path fill-rule="evenodd" clip-rule="evenodd" d="M50.1628 30.0382L23.1398 14.6888C21.5578 13.7848 20.1373 13.9093 19.2979 14.8133L42.3543 37.8467L50.1628 30.0382Z" fill="url(#paint3_linear_34_1930)"/>
<path opacity="0.2" fill-rule="evenodd" clip-rule="evenodd" d="M49.9964 45.4883L23.1579 60.7363C21.6589 61.5987 20.3214 61.5388 19.4589 60.7547L19.3159 60.8977L19.4589 61.0222C20.3214 61.8017 21.6589 61.8662 23.1579 61.0038L50.1808 45.6543L49.9964 45.4883Z" fill="black"/>
<path opacity="0.12" fill-rule="evenodd" clip-rule="evenodd" d="M59.2027 40.2492L49.9736 45.4886L50.1397 45.6547L59.1796 40.5167C60.4756 39.7787 61.1121 38.8101 61.1121 37.8462C61.0337 38.7317 60.3742 39.5712 59.2027 40.2492Z" fill="black"/>
<path opacity="0.25" fill-rule="evenodd" clip-rule="evenodd" d="M23.1396 14.956L59.2025 35.4435C60.374 36.103 61.0336 36.9655 61.135 37.8464C61.135 36.8825 60.4985 35.9139 59.2025 35.176L23.1396 14.6885C20.5522 13.208 18.4536 14.4441 18.4536 17.4005V17.668C18.4536 14.707 20.5522 13.494 23.1396 14.956Z" fill="white"/>
</g>
<defs>
<linearGradient id="paint0_linear_34_1930" x1="40.3172" y1="16.9593" x2="3.61382" y2="26.739" gradientUnits="userSpaceOnUse">
<stop stop-color="#00A0FF"/>
<stop offset="0.00657" stop-color="#00A1FF"/>
<stop offset="0.2601" stop-color="#00BEFF"/>
<stop offset="0.5122" stop-color="#00D2FF"/>
<stop offset="0.7604" stop-color="#00DFFF"/>
<stop offset="1" stop-color="#00E3FF"/>
</linearGradient>
<linearGradient id="paint1_linear_34_1930" x1="62.5767" y1="37.846" x2="17.8246" y2="37.846" gradientUnits="userSpaceOnUse">
<stop stop-color="#FFE000"/>
<stop offset="0.4087" stop-color="#FFBD00"/>
<stop offset="0.7754" stop-color="#FFA500"/>
<stop offset="1" stop-color="#FF9C00"/>
</linearGradient>
<linearGradient id="paint2_linear_34_1930" x1="45.9168" y1="42.0951" x2="16.4515" y2="91.6877" gradientUnits="userSpaceOnUse">
<stop stop-color="#FF3A44"/>
<stop offset="1" stop-color="#C31162"/>
</linearGradient>
<linearGradient id="paint3_linear_34_1930" x1="13.492" y1="1.18741" x2="26.6376" y2="23.3362" gradientUnits="userSpaceOnUse">
<stop stop-color="#32A071"/>
<stop offset="0.0685" stop-color="#2DA771"/>
<stop offset="0.4762" stop-color="#15CF74"/>
<stop offset="0.8009" stop-color="#06E775"/>
<stop offset="1" stop-color="#00F076"/>
</linearGradient>
<clipPath id="clip0_34_1930">
<rect width="250.711" height="73.9799" fill="white" transform="translate(0 0.855957)"/>
</clipPath>
</defs>
</svg>
